<?xml version="1.0" encoding="UTF-8"?>
<svg fill="none" viewBox="0 0 24 24" xmlns="http://www.w3.org/2000/svg">
<g stroke="#fff" stroke-linecap="round" stroke-width="1.5">
<path d="M21 22H11M3 22H7"/>
<path d="m19 22v-7"/>
<path d="m5 22v-7"/>
<path d="m12 2h-4.5278c-1.2028 0-1.8042 0-2.2875 0.2987-0.48331 0.2987-0.75227 0.83661-1.2902 1.9124l-1.4036 3.5482c-0.32429 0.81976-0.60802 1.786-0.06214 2.4782 0.36622 0.4644 0.9339 0.7625 1.5712 0.7625 1.1046 0 2-0.8954 2-2 0 1.1046 0.89543 2 2 2s2-0.8954 2-2c0 1.1046 0.89539 2 2 2s2-0.8954 2-2c0 1.1046 0.8954 2 2 2s2-0.8954 2-2c0 1.1046 0.8954 2 2 2 0.6374 0 1.2051-0.2981 1.5713-0.7625 0.5459-0.69225 0.2622-1.6584-0.0621-2.4782l-1.4036-3.5482c-0.5379-1.0758-0.8069-1.6137-1.2902-1.9124s-1.0847-0.2987-2.2875-0.2987h-0.5278" stroke-linejoin="round"/>
</g>
</svg>
